<svg width="23" height="24" viewBox="0 0 23 24" fill="none" xmlns="http://www.w3.org/2000/svg">
<path d="M11.6487 22.1903C17.9178 22.1903 23 17.2229 23 11.0952C23 4.96748 17.9178 0 11.6487 0C5.37948 0 0.297302 4.96748 0.297302 11.0952C0.297302 17.2229 5.37948 22.1903 11.6487 22.1903Z" fill="#3A4042"/>
<path d="M21.1731 9.80955C18.0701 9.80955 16.6886 13.336 16.6461 13.4459C16.5464 13.7465 15.8628 15.8796 15.8628 17.5851C15.8628 20.8085 13.1275 22.6737 9.80904 22.6737C6.46316 22.6737 3.75249 20.7804 3.75249 17.5114C3.75249 17.5114 3.75249 15.7053 3.97744 14.1016C3.44379 13.5116 3.36558 12.5664 3.36558 12.5664C3.36558 12.5664 3.14079 12.6092 2.93507 12.7767C2.90966 12.7975 2.87072 12.7775 2.8746 12.7453C2.93539 12.2409 3.45804 11.1704 4.49328 11.0163C4.67438 10.3003 5.01727 9.54271 5.09548 9.39927C6.14489 7.48723 8.20809 6.18793 10.5828 6.18793C11.4538 6.18793 12.2824 6.36224 13.0356 6.67867C15.1289 6.67867 16.1399 5.59259 16.1399 5.59259C16.61 5.59259 17.1765 6.79464 16.914 7.24252C16.9076 7.2535 16.9218 7.26627 16.9327 7.25946C17.8048 6.71642 18.2964 5.37674 18.2964 5.37674C19.2923 5.86345 19.815 8.05038 19.28 8.5733C20.9989 8.83202 21.4613 9.80955 21.1731 9.80955Z" fill="#FFFCEE"/>
<path d="M9.65907 22.6711C6.38237 22.6157 3.75227 20.7323 3.75227 17.512C3.75227 17.512 3.7248 17.0497 3.80213 15.962C7.22828 15.4357 5.54421 20.2351 9.65907 22.6711Z" fill="#EAE6DA"/>
<path d="M21.2529 9.72375C21.2529 9.77737 21.2254 9.80955 21.1733 9.80955C21.1239 9.80955 21.0759 9.81087 21.0266 9.81226C18.2733 9.90208 17.0524 12.51 16.8453 13.0062C16.8439 13.0089 16.8425 13.0115 16.8412 13.0142C16.7287 13.2408 16.6656 13.3977 16.6491 13.438C16.7424 13.0357 16.8056 12.6495 16.8056 12.2687C16.8056 11.015 16.4173 9.84986 15.752 8.88177C15.0867 7.91499 14.1456 7.14403 13.0372 6.67875C13.0907 6.67875 13.1442 6.67744 13.1978 6.67604C13.2307 6.67604 13.2636 6.67473 13.2965 6.67202C13.3308 6.67202 13.3652 6.66931 13.3994 6.668C13.4516 6.66397 13.5009 6.65995 13.5503 6.65593C13.5805 6.65322 13.6107 6.65059 13.6409 6.64657C13.8439 6.62645 14.0346 6.59427 14.2129 6.55535C14.2445 6.5473 14.276 6.54057 14.3062 6.53253C14.3391 6.5258 14.3721 6.51775 14.405 6.50839C14.442 6.49903 14.4791 6.48959 14.5147 6.47891C14.5723 6.4615 14.63 6.44402 14.6848 6.42661C14.7287 6.41184 14.7726 6.39714 14.8137 6.38104C14.8563 6.36627 14.8988 6.35157 14.9386 6.33408C14.9797 6.31931 15.0181 6.30321 15.0565 6.28581C15.1319 6.25362 15.2047 6.22012 15.2732 6.18662C15.3597 6.14368 15.4392 6.10082 15.5133 6.05788C15.6354 5.98818 15.7383 5.91978 15.8233 5.85812C15.9262 5.783 16.0044 5.71871 16.0565 5.67174C16.0579 5.67043 16.0579 5.67043 16.0593 5.66904C16.1115 5.6261 16.1869 5.62749 16.239 5.67035C16.4983 5.89023 17.169 6.54189 16.918 7.23378C16.9167 7.23649 16.9153 7.23912 16.9139 7.24183C16.9111 7.24856 16.9139 7.2539 16.918 7.2566C16.9221 7.26063 16.929 7.26333 16.9345 7.25931C16.9605 7.24322 16.9852 7.22713 17.0114 7.20833C17.069 7.1681 17.1266 7.12516 17.1801 7.07827C17.2007 7.06087 17.2213 7.04207 17.2418 7.02327C17.2748 6.99379 17.3077 6.9616 17.3393 6.92942C17.3544 6.91464 17.3694 6.89994 17.3832 6.88385C17.386 6.88114 17.3887 6.87851 17.3914 6.8758C17.401 6.86644 17.4093 6.857 17.4175 6.84764C17.4271 6.83689 17.4367 6.82753 17.445 6.81817C17.4477 6.81546 17.4491 6.81283 17.4504 6.81143C17.4655 6.79534 17.4792 6.77925 17.4916 6.76316C17.4998 6.7538 17.508 6.74575 17.5149 6.73631C17.5396 6.70684 17.5643 6.67597 17.5877 6.64649C17.6014 6.62908 17.6151 6.6116 17.6275 6.59419C17.6316 6.59017 17.6344 6.58614 17.6357 6.58212C17.6357 6.58212 17.6385 6.5808 17.6385 6.57941C17.6522 6.562 17.6659 6.54452 17.6769 6.52711C17.692 6.507 17.707 6.48688 17.7194 6.46677C17.7263 6.46003 17.7304 6.45199 17.7345 6.44534C17.74 6.4386 17.7441 6.43195 17.7482 6.42522C17.7592 6.41044 17.7688 6.39574 17.7783 6.38097C17.7989 6.3501 17.8195 6.31791 17.8387 6.28712C17.8401 6.28581 17.8415 6.28441 17.8415 6.2831C17.8621 6.25223 17.8799 6.22144 17.8978 6.19057C17.9019 6.18523 17.9047 6.17981 17.9074 6.17447C17.9348 6.13022 17.9595 6.08597 17.9828 6.04303C17.9924 6.02694 18.0006 6.01216 18.0088 5.99746C18.0253 5.96798 18.0404 5.93711 18.0555 5.90895C18.0678 5.88613 18.0788 5.86338 18.0912 5.84187C18.0912 5.84056 18.0912 5.83917 18.0925 5.83785C18.0939 5.83251 18.0966 5.8271 18.0994 5.82307C18.1145 5.79491 18.1282 5.76675 18.1406 5.73991C18.1501 5.71979 18.1598 5.69967 18.168 5.68087C18.1735 5.67012 18.1776 5.66076 18.1817 5.6514C18.1845 5.64606 18.1872 5.64064 18.1899 5.6353C18.1995 5.61248 18.2092 5.59237 18.2174 5.57225C18.2202 5.56552 18.2229 5.56018 18.227 5.55345C18.275 5.47833 18.3834 5.46765 18.4451 5.53736C18.6495 5.76667 19.0226 6.21718 19.2888 6.72672C19.2957 6.74281 19.2998 6.7589 19.3066 6.775C19.5426 7.48298 19.5714 8.23785 19.3066 8.54491C19.2984 8.55428 19.2902 8.56371 19.2806 8.57308C19.3876 8.58917 19.4905 8.60797 19.5879 8.6294C19.629 8.63876 19.6688 8.6482 19.7086 8.65756C19.7292 8.6629 19.7497 8.66831 19.769 8.67365C19.8074 8.68301 19.8444 8.69377 19.8801 8.70452C20.3397 8.83991 20.6716 9.029 20.8939 9.21267C20.9131 9.22876 20.9309 9.24485 20.9487 9.26094C20.9515 9.26226 20.9542 9.26365 20.9556 9.26628C20.9734 9.28237 20.9899 9.29847 21.0064 9.31456C21.0228 9.33065 21.0393 9.34674 21.0544 9.36415C21.0695 9.38024 21.0846 9.39634 21.0969 9.41243C21.1203 9.43928 21.1409 9.46604 21.1587 9.49157C21.2122 9.57064 21.2423 9.64043 21.2506 9.69404C21.2515 9.70495 21.2529 9.71431 21.2529 9.72375Z" fill="#F25A70"/>
<path d="M4.74869 10.9982C3.54406 10.9982 2.9387 12.2013 2.87426 12.7458C2.87039 12.7784 2.90893 12.798 2.93474 12.7771C3.14117 12.6098 3.3662 12.5658 3.3662 12.5658C3.3662 12.5658 3.53211 14.5658 5.02525 14.5658C6.85013 14.5658 6.68422 10.9982 4.74869 10.9982Z" fill="#828282"/>
<path d="M10.9138 20.0929C11.8143 20.2463 13.5139 20.3765 13.984 19.917C14.2882 19.6197 13.2895 18.2936 12.3526 17.4051C12.1177 17.1706 11.6895 16.9981 11.2742 16.9981C10.3882 16.9981 9.67047 17.6997 9.67047 18.5656C9.67055 19.3387 10.1612 19.9643 10.9138 20.0929Z" fill="#F4F1E4"/>
<path d="M20.1033 8.21178C20.3114 7.39881 19.8861 6.3412 18.8589 5.18527C18.7286 5.03866 18.5401 4.95456 18.3419 4.95456C18.0676 4.95456 17.8203 5.11378 17.7119 5.36019C17.6528 5.49466 17.5096 5.79964 17.3037 6.10756C17.0954 5.72312 16.7873 5.42603 16.5969 5.26511C16.4718 5.15943 16.3123 5.10125 16.1475 5.10125C15.9767 5.10125 15.8131 5.16322 15.6868 5.27579C15.464 5.47431 14.6333 6.11166 13.1434 6.14129C12.3314 5.81627 11.4705 5.65163 10.5828 5.65163C8.08287 5.65163 5.79495 6.99054 4.61209 9.14575C4.53657 9.28431 4.25147 9.90534 4.04883 10.5722C3.01042 10.9158 2.41385 11.985 2.32971 12.6823C2.31016 12.8443 2.36248 13.0071 2.47321 13.129C2.58442 13.2513 2.74423 13.3214 2.91172 13.3214C2.92771 13.3214 2.9437 13.3208 2.95953 13.3195C3.04628 13.6111 3.18456 13.9504 3.40366 14.255C3.20617 15.8119 3.20379 17.4397 3.20379 17.5114C3.20379 19.2338 3.88625 20.6935 5.17732 21.7325C6.36129 22.6853 8.00617 23.21 9.80904 23.21C13.6965 23.21 16.4116 20.897 16.4116 17.5851C16.4116 15.9667 17.0686 13.9135 17.1639 13.6244C17.2608 13.3793 18.516 10.3459 21.1731 10.3459C21.5048 10.3459 21.7741 10.1008 21.7995 9.7759C21.8418 9.23658 21.2162 8.5607 20.1033 8.21178ZM13.9516 21.1822C12.8995 22.0143 11.4282 22.4726 9.80873 22.4726C5.7678 22.4726 3.95899 19.981 3.95899 17.5117C3.95899 17.4952 3.96145 15.969 4.13464 14.4993C4.37613 14.6634 4.66931 14.7669 5.02519 14.7669C5.49528 14.7669 5.88606 14.5639 6.15541 14.1799C6.38258 13.8558 6.50772 13.4151 6.50772 12.939C6.50772 11.9065 5.89761 10.8105 4.76731 10.7983C4.94983 10.1902 5.21286 9.61258 5.27729 9.49436C6.3286 7.57899 8.36165 6.38909 10.5832 6.38909C11.4077 6.38909 12.2056 6.5487 12.9548 6.86351C14.0211 7.31115 14.929 8.04784 15.58 8.99388C16.2463 9.96359 16.5986 11.0959 16.5986 12.2687C16.5986 12.8952 16.4205 13.5351 16.2143 14.276C15.9535 15.2129 15.658 16.2747 15.658 17.5853C15.658 19.0554 15.068 20.2992 13.9516 21.1822ZM5.57712 12.9352C4.46842 11.987 3.46152 12.3135 3.30384 12.3734C3.27836 12.3794 3.23482 12.391 3.1787 12.4114C3.37872 11.9081 3.87699 11.1993 4.74878 11.1993C5.6334 11.1993 6.09629 12.0744 6.09629 12.9388C6.09629 13.3346 5.99671 13.6945 5.81601 13.9522C5.62422 14.2258 5.35818 14.3645 5.02527 14.3645C4.49732 14.3645 4.09443 14.0711 3.82768 13.4923C3.68916 13.1917 3.62291 12.8869 3.59315 12.708C3.87937 12.6442 4.55264 12.5934 5.30618 13.2378C5.3452 13.2713 5.39357 13.2876 5.44161 13.2876C5.49892 13.2876 5.55591 13.2644 5.59651 13.2189C5.67131 13.1354 5.66261 13.0084 5.57712 12.9352ZM16.0564 5.67214C16.0823 5.64908 16.1148 5.63763 16.1474 5.63763C16.1795 5.63763 16.2117 5.64877 16.2379 5.6709C16.467 5.86455 17.0148 6.39374 16.9695 6.99039C16.7404 7.16678 16.4814 7.28376 16.1961 7.28376C16.0824 7.28376 15.9903 7.37382 15.9903 7.48492C15.9903 7.59602 16.0824 7.68607 16.1961 7.68607C17.3834 7.68607 18.1386 6.25517 18.3948 5.67848C18.827 6.02508 19.1444 6.7637 19.2488 7.39177C19.3189 7.81434 19.2937 8.1782 19.187 8.36202C18.952 8.33038 18.6952 8.31081 18.4082 8.31081C18.2945 8.31081 18.2024 8.40086 18.2024 8.51196C18.2024 8.62306 18.2945 8.71311 18.4082 8.71311C19.9987 8.71311 20.6228 9.28779 20.8502 9.61931C18.7879 9.76375 17.5755 11.2792 17.0096 12.2373C17.0033 10.9957 16.6278 9.79718 15.9216 8.76959C15.3008 7.86757 14.4605 7.14543 13.4772 6.66034C14.9493 6.5477 15.8001 5.90052 16.0564 5.67214Z" fill="#3A4042"/>
<path d="M8.65024 14.2852C9.21368 14.2852 9.67045 13.8387 9.67045 13.288C9.67045 12.7373 9.21368 12.2908 8.65024 12.2908C8.0868 12.2908 7.63004 12.7373 7.63004 13.288C7.63004 13.8387 8.0868 14.2852 8.65024 14.2852Z" fill="#3A4042"/>
<path d="M12.5497 20.4385C11.7818 20.4385 11.0221 20.3155 10.8784 20.291H10.8783C10.0328 20.1465 9.46475 19.4531 9.46475 18.5657C9.46475 17.5905 10.2765 16.7971 11.2743 16.7971C11.7344 16.7971 12.2154 16.9806 12.4997 17.2645C13.1699 17.8999 14.2408 19.1424 14.2455 19.756C14.2467 19.9118 14.1831 20.007 14.1296 20.0593C13.8279 20.3541 13.186 20.4385 12.5497 20.4385ZM10.9492 19.8948C12.107 20.0923 13.5045 20.1014 13.8386 19.7749C13.9075 19.5827 13.2452 18.5318 12.2095 17.5496C12.0014 17.3419 11.6183 17.1994 11.2744 17.1994C10.5035 17.1994 9.87643 17.8123 9.87643 18.5658C9.87627 19.251 10.3075 19.785 10.9492 19.8948Z" fill="#3A4042"/>
</svg>
