<svg width="65" height="67" viewBox="0 0 65 67" fill="none" xmlns="http://www.w3.org/2000/svg">
<path d="M38.3473 63.1478C52.2367 63.1478 63.4963 51.9326 63.4963 38.098C63.4963 24.2634 52.2367 13.0482 38.3473 13.0482C24.4578 13.0482 13.1982 24.2634 13.1982 38.098C13.1982 51.9326 24.4578 63.1478 38.3473 63.1478Z" fill="#3A4042"/>
<path d="M5.47946 34.9095C2.62415 34.2145 0.952697 31.5674 1.66882 28.6546C2.09957 26.9014 3.35246 25.568 4.93157 25.06L5.57202 27.235C4.71866 27.481 4.07158 28.2015 3.83088 29.182C3.41018 30.8935 4.2892 32.2786 6.02201 32.701C7.7546 33.1228 9.17638 32.2986 9.59643 30.5871C9.83756 29.6068 9.60092 28.6563 8.95427 28.0601L10.5308 26.4246C11.6999 27.5876 12.1931 29.3468 11.7589 31.1145C11.0434 34.0273 8.33477 35.6057 5.47946 34.9095Z" fill="#FFFCEE"/>
<path d="M9.69129 25.0951C7.87575 23.9943 7.34924 21.7122 8.4401 19.9279C9.53053 18.1436 11.8076 17.5608 13.6233 18.6623C15.4391 19.7627 15.9654 22.0448 14.8745 23.8295C13.7843 25.6132 11.5073 26.196 9.69129 25.0951ZM12.5109 20.483C11.6451 19.9579 10.7016 20.2181 10.2193 21.007C9.73682 21.7959 9.93862 22.7496 10.8042 23.2749C11.6697 23.7995 12.6131 23.5397 13.0953 22.7508C13.5776 21.9613 13.3756 21.0076 12.5109 20.483Z" fill="#FFFCEE"/>
<path d="M9.71631 13.0091L11.1746 11.4479L18.8004 18.5194L17.3412 20.0799L9.71631 13.0091Z" fill="#FFFCEE"/>
<path d="M13.0343 9.69833L14.6752 8.32986L21.3617 16.2824L19.7203 17.6502L13.0343 9.69833Z" fill="#FFFCEE"/>
<path d="M25.2084 5.76282L28.5642 12.0326L26.6759 13.0357L26.3604 12.4461C26.1999 13.1434 25.7373 13.7596 24.894 14.2076C23.2443 15.0836 21.1124 14.3637 20.1126 12.4944C19.1128 10.6264 19.7002 8.46185 21.3499 7.58588C22.1932 7.13852 22.9645 7.09892 23.6351 7.35486L23.3196 6.76527L25.2084 5.76282ZM24.9983 9.9008C24.4944 8.95988 23.5491 8.70501 22.6804 9.16578C21.8121 9.62762 21.4976 10.5509 22.001 11.4918C22.5049 12.4323 23.4495 12.6869 24.3185 12.2262C25.1866 11.765 25.5011 10.8413 24.9983 9.9008Z" fill="#FFFCEE"/>
<path d="M36.28 6.76698C36.6891 8.84534 35.4918 10.744 33.6577 11.1015C32.719 11.2846 31.97 11.0977 31.4043 10.658L31.5326 11.3131L29.4325 11.7228L27.5142 1.95956L29.6142 1.5499L30.2914 4.99566C30.6493 4.37498 31.2724 3.92081 32.2104 3.7377C34.045 3.3802 35.8721 4.68969 36.28 6.76698ZM34.1799 7.17665C33.9742 6.13076 33.1455 5.61165 32.1797 5.79988C31.2139 5.98853 30.642 6.78082 30.8477 7.82607C31.0533 8.87259 31.8821 9.39149 32.8485 9.20284C33.8144 9.01483 34.3851 8.22275 34.1799 7.17665Z" fill="#FFFCEE"/>
<path d="M38.5585 10.5025L37.6472 9.53501L37.8078 4.53532L38.7791 3.62827L40.1479 3.67149L41.0592 4.63859L41.0201 5.84609L40.4638 5.82884L40.4968 4.80617L39.876 4.1461L39.0198 4.11884L38.3578 4.73782L38.2094 9.36829L38.8302 10.0277L39.6857 10.055L40.3484 9.43664L40.3807 8.41354L40.9369 8.43185L40.8984 9.63871L39.9271 10.5464L38.5585 10.5025Z" fill="#FFFCEE"/>
<path d="M42.7669 10.8562L42.0189 9.75815L42.9625 4.84512L44.0643 4.1001L45.6053 4.39372L46.3533 5.49114L45.4104 10.4048L44.308 11.1498L42.7669 10.8562ZM43.1096 10.4299L44.1468 10.6275L44.8986 10.1195L45.7725 5.56907L45.2624 4.82021L44.2252 4.62304L43.4738 5.13108L42.5993 9.68107L43.1096 10.4299Z" fill="#FFFCEE"/>
<path d="M47.1148 11.9187L46.5564 10.7153L48.2909 6.02047L49.5004 5.46431L50.5047 5.83246L51.0376 6.98162L52.363 3.39426L52.8859 3.58568L49.485 12.7883L49.0034 12.6118L49.2922 11.7479L48.1195 12.2875L47.1148 11.9187ZM47.5233 11.5546L48.1257 11.775L49.4996 11.1426L50.8104 7.59463L50.1761 6.2268L49.5737 6.00578L48.7494 6.385L47.1426 10.7329L47.5233 11.5546Z" fill="#FFFCEE"/>
<path d="M51.3874 13.7507L51.0295 12.4723L53.4986 8.11608L54.7816 7.76028L56.0986 8.5002L56.4558 9.77817L55.1728 12.0433L52.6999 10.6531L51.6059 12.5839L51.8493 13.4554L52.7187 13.9445L53.5937 13.702L54.0144 12.9593L54.4988 13.2314L53.9872 14.1353L52.7042 14.4911L51.3874 13.7507ZM52.9379 10.2328L54.9265 11.3502L55.8795 9.66639L55.6365 8.79531L54.7658 8.30622L53.8919 8.54874L52.9379 10.2328Z" fill="#FFFCEE"/>
<path d="M59.449 35.1954C52.5742 35.1954 49.5135 43.1571 49.4194 43.4054C49.1986 44.084 47.684 48.8999 47.684 52.7507C47.684 60.0282 41.6237 64.2392 34.2718 64.2392C26.8589 64.2392 20.8533 59.9648 20.8533 52.5841C20.8533 52.5841 20.8533 48.5064 21.3518 44.8856C20.1694 43.5536 19.9963 41.4194 19.9963 41.4194C19.9963 41.4194 19.4982 41.5163 19.0425 41.8945C18.986 41.9413 18.8999 41.8962 18.9084 41.8236C19.0431 40.6846 20.2011 38.2679 22.4946 37.92C22.8959 36.3035 23.6556 34.5931 23.8287 34.2692C26.1539 29.9524 30.7249 27.0189 35.986 27.0189C37.9159 27.0189 39.7517 27.4124 41.4202 28.127C46.0581 28.127 48.2982 25.6749 48.2982 25.6749C49.3395 25.6749 50.5947 28.3889 50.0133 29.3998C49.9989 29.4247 50.0306 29.4535 50.055 29.4381C51.987 28.2121 53.0761 25.1873 53.0761 25.1873C55.2827 26.2862 56.4407 31.2237 55.2553 32.4044C59.063 32.9885 60.0873 35.1954 59.449 35.1954Z" fill="#FFFCEE"/>
<path d="M33.9391 64.2332C26.6796 64.1083 20.8524 59.8559 20.8524 52.5854C20.8524 52.5854 20.7915 51.5419 20.9628 49.086C28.5537 47.8977 24.8226 58.7336 33.9391 64.2332Z" fill="#EAE6DA"/>
<path d="M59.6256 35.0017C59.6256 35.1228 59.5649 35.1954 59.4493 35.1954C59.3398 35.1954 59.2336 35.1984 59.1241 35.2014C53.0242 35.4043 50.3192 41.2923 49.8605 42.4123C49.8575 42.4183 49.8545 42.4244 49.8513 42.4304C49.602 42.9421 49.4622 43.2961 49.4257 43.3871C49.6324 42.4789 49.7722 41.607 49.7722 40.7472C49.7722 37.9168 48.912 35.2859 47.438 33.1002C45.9639 30.9176 43.879 29.1769 41.4232 28.1263C41.5419 28.1263 41.6603 28.1233 41.7789 28.1204C41.8518 28.1204 41.9247 28.1174 41.9978 28.1112C42.0737 28.1112 42.1498 28.1052 42.2257 28.102C42.3411 28.0929 42.4506 28.0839 42.56 28.0748C42.6269 28.0688 42.6939 28.0627 42.7606 28.0535C43.2103 28.0081 43.6327 27.9353 44.028 27.8476C44.0979 27.8295 44.1678 27.8144 44.2347 27.7961C44.3076 27.781 44.3807 27.7629 44.4536 27.7416C44.5357 27.7203 44.6178 27.6992 44.6967 27.6749C44.8243 27.6355 44.9519 27.5961 45.0735 27.5567C45.1708 27.5235 45.2681 27.4901 45.3591 27.4539C45.4534 27.4207 45.5475 27.3873 45.6357 27.3479C45.727 27.3147 45.8121 27.2782 45.8972 27.2389C46.0644 27.1662 46.2253 27.0904 46.3773 27.0149C46.5688 26.918 46.745 26.8211 46.9092 26.7242C47.1796 26.5669 47.4077 26.4125 47.596 26.2732C47.8239 26.1037 47.9972 25.9583 48.1127 25.8525C48.1157 25.8495 48.1157 25.8495 48.1187 25.8465C48.2341 25.7497 48.4013 25.7526 48.5169 25.8495C49.0913 26.3461 50.5777 27.8172 50.0214 29.3794C50.0184 29.3853 50.0154 29.3915 50.0122 29.3975C50.0062 29.4126 50.0122 29.4247 50.0214 29.4307C50.0306 29.4399 50.0458 29.4458 50.058 29.4367C50.1157 29.4002 50.1704 29.3641 50.2281 29.3217C50.3558 29.2308 50.4834 29.1341 50.602 29.0281C50.6476 28.9887 50.6933 28.9463 50.7388 28.9039C50.8117 28.8373 50.8846 28.7647 50.9545 28.6921C50.9879 28.6588 51.0214 28.6254 51.0518 28.5892C51.0578 28.5833 51.064 28.5771 51.07 28.5711C51.0913 28.5498 51.1095 28.5287 51.1277 28.5075C51.1491 28.4832 51.1702 28.4621 51.1884 28.4408C51.1944 28.4349 51.1976 28.4287 51.2006 28.4257C51.2339 28.3893 51.2645 28.3531 51.2916 28.3167C51.3098 28.2954 51.3282 28.2773 51.3434 28.2562C51.3981 28.1896 51.4528 28.1199 51.5046 28.0533C51.5349 28.0139 51.5653 27.9745 51.5926 27.9351C51.6018 27.926 51.6078 27.917 51.6108 27.9079C51.6108 27.9079 51.6168 27.9049 51.6168 27.9019C51.6471 27.8625 51.6775 27.8231 51.7019 27.7837C51.7352 27.7384 51.7688 27.6928 51.7961 27.6475C51.8113 27.6323 51.8205 27.6142 51.8295 27.5989C51.8417 27.5838 51.8509 27.5687 51.8598 27.5536C51.8842 27.5203 51.9054 27.4869 51.9267 27.4537C51.9723 27.3841 52.018 27.3115 52.0606 27.2418C52.0636 27.2389 52.0666 27.2359 52.0666 27.2327C52.1121 27.163 52.1516 27.0934 52.1912 27.0238C52.2004 27.0117 52.2064 26.9995 52.2126 26.9874C52.2733 26.8875 52.328 26.7877 52.3797 26.6908C52.4011 26.6544 52.4193 26.6212 52.4374 26.5879C52.474 26.5213 52.5073 26.4517 52.5407 26.3882C52.5681 26.3367 52.5924 26.2854 52.6198 26.2368C52.6198 26.2338 52.6198 26.2309 52.6228 26.2277C52.6258 26.2155 52.632 26.2034 52.638 26.1945C52.6713 26.1308 52.7019 26.0673 52.7292 26.0069C52.7506 25.9615 52.7718 25.9159 52.7899 25.8736C52.8021 25.8493 52.8113 25.8282 52.8203 25.8069C52.8263 25.7948 52.8325 25.7827 52.8385 25.7705C52.8598 25.719 52.881 25.6736 52.8992 25.6283C52.9052 25.6132 52.9114 25.601 52.9206 25.5859C53.027 25.4164 53.2671 25.3922 53.4039 25.5495C53.8567 26.0671 54.6835 27.0843 55.2731 28.2347C55.2883 28.2711 55.2975 28.3073 55.3126 28.3437C55.8353 29.9421 55.8992 31.6464 55.3126 32.3397C55.2945 32.361 55.2761 32.3821 55.2549 32.4033C55.492 32.4398 55.7199 32.4821 55.9358 32.5305C56.027 32.5515 56.1151 32.5728 56.2032 32.5941C56.2487 32.6063 56.2945 32.6184 56.337 32.6305C56.4221 32.6518 56.5042 32.6759 56.5833 32.7002C57.6015 33.0059 58.337 33.4328 58.8293 33.8474C58.8719 33.8838 58.9114 33.92 58.951 33.9564C58.957 33.9594 58.9632 33.9624 58.9662 33.9686C59.0057 34.005 59.042 34.0412 59.0786 34.0776C59.1152 34.114 59.1515 34.1502 59.1851 34.1896C59.2184 34.226 59.252 34.2622 59.2793 34.2986C59.3311 34.3591 59.3766 34.4197 59.4161 34.4772C59.5348 34.6559 59.6015 34.8132 59.6199 34.9344C59.6226 34.9593 59.6256 34.9804 59.6256 35.0017Z" fill="#F25A70"/>
<path d="M23.0602 37.8791C20.3913 37.8791 19.0501 40.5954 18.9073 41.8246C18.8988 41.8983 18.9841 41.9426 19.0414 41.8953C19.4988 41.5176 19.9973 41.4181 19.9973 41.4181C19.9973 41.4181 20.3648 45.9336 23.6729 45.9336C27.7159 45.9336 27.3484 37.8791 23.0602 37.8791Z" fill="#828282"/>
<path d="M36.7191 58.4123C38.714 58.759 42.4798 59.0526 43.5213 58.0152C44.195 57.3441 41.9828 54.3499 39.9068 52.3442C39.3865 51.8146 38.4378 51.4252 37.5178 51.4252C35.5549 51.4252 33.9647 53.0091 33.9647 54.9642C33.9645 56.7096 35.0515 58.1219 36.7191 58.4123Z" fill="#F4F1E4"/>
<path d="M57.0785 31.5881C57.5396 29.7524 56.5973 27.3649 54.3213 24.7549C54.0327 24.4238 53.6152 24.2341 53.1759 24.2341C52.5682 24.2341 52.0203 24.5935 51.7802 25.1499C51.6492 25.4533 51.332 26.1421 50.8758 26.8371C50.4145 25.9692 49.7317 25.2983 49.3099 24.935C49.0329 24.6963 48.6793 24.565 48.3142 24.565C47.9358 24.565 47.5735 24.7048 47.2937 24.9591C46.8001 25.4073 44.9595 26.8462 41.6587 26.9131C39.8596 26.1794 37.9524 25.8076 35.9855 25.8076C30.4468 25.8076 25.3779 28.8305 22.7571 33.6964C22.5897 34.0092 21.958 35.4113 21.5091 36.9171C19.2087 37.693 17.887 40.1068 17.7006 41.6811C17.6572 42.0471 17.7731 42.4147 18.0187 42.6895C18.2652 42.9657 18.6192 43.1239 18.99 43.1239C19.0255 43.1239 19.0608 43.1224 19.0961 43.1196C19.2883 43.778 19.5948 44.5441 20.0801 45.2319C19.6425 48.7468 19.6371 52.4221 19.6371 52.5842C19.6371 56.473 21.1491 59.7685 24.0095 62.1142C26.6327 64.2654 30.277 65.4501 34.2713 65.4501C42.884 65.4501 48.8995 60.2279 48.8995 52.7507C48.8995 49.0967 50.355 44.4609 50.5662 43.8082C50.7811 43.2549 53.5618 36.4063 59.449 36.4063C60.1837 36.4063 60.7803 35.8532 60.8368 35.1194C60.9304 33.9017 59.5443 32.3759 57.0785 31.5881ZM43.4495 60.8716C41.1185 62.7505 37.8588 63.7851 34.2709 63.7851C25.318 63.7851 21.3107 58.1598 21.3107 52.5846C21.3107 52.5473 21.3161 49.1016 21.6998 45.7833C22.2348 46.1538 22.8843 46.3874 23.6729 46.3874C24.7143 46.3874 25.5801 45.929 26.1769 45.0619C26.6804 44.3303 26.9576 43.3353 26.9576 42.2603C26.9576 39.9292 25.6058 37.455 23.1017 37.4273C23.5061 36.0544 24.0889 34.7504 24.2314 34.4834C26.5607 30.1591 31.065 27.4727 35.9868 27.4727C37.8132 27.4727 39.5811 27.8331 41.2412 28.5437C43.6036 29.5542 45.6149 31.2176 47.0574 33.3534C48.5337 35.5427 49.314 38.0993 49.314 40.7472C49.314 42.1615 48.9194 43.6064 48.4625 45.2791C47.8847 47.3943 47.23 49.7916 47.23 52.7507C47.23 56.0702 45.9228 58.8782 43.4495 60.8716ZM24.8954 42.2524C22.439 40.1117 20.2083 40.8488 19.8588 40.9842C19.8024 40.9979 19.706 41.0238 19.5815 41.0698C20.0247 39.9337 21.1286 38.3333 23.0602 38.3333C25.0202 38.3333 26.0457 40.309 26.0457 42.2607C26.0457 43.1544 25.8251 43.9669 25.4247 44.5488C24.9997 45.1665 24.4104 45.4797 23.6729 45.4797C22.5031 45.4797 21.6104 44.8173 21.0196 43.5106C20.7126 42.832 20.5659 42.1438 20.4999 41.7399C21.1339 41.5957 22.6256 41.481 24.2951 42.9361C24.3817 43.0115 24.4886 43.0485 24.5953 43.0485C24.7223 43.0485 24.8484 42.9962 24.9386 42.8935C25.104 42.7044 25.085 42.4174 24.8954 42.2524ZM48.1126 25.8542C48.1699 25.802 48.2419 25.7763 48.314 25.7763C48.3852 25.7763 48.4566 25.8014 48.5145 25.8512C49.022 26.2884 50.2358 27.4833 50.1353 28.8303C49.6278 29.2284 49.054 29.4925 48.4219 29.4925C48.1701 29.4925 47.966 29.6958 47.966 29.9466C47.966 30.1975 48.1701 30.4008 48.4219 30.4008C51.0523 30.4008 52.7257 27.1703 53.2933 25.8681C54.2508 26.6506 54.9543 28.3182 55.1853 29.7363C55.3408 30.6904 55.285 31.5118 55.0485 31.9268C54.5278 31.8553 53.959 31.8112 53.3228 31.8112C53.071 31.8112 52.8668 32.0146 52.8668 32.2654C52.8668 32.5162 53.071 32.7196 53.3228 32.7196C56.8465 32.7196 58.2292 34.0171 58.7331 34.7655C54.164 35.0915 51.478 38.5132 50.224 40.6763C50.2101 37.873 49.3781 35.1671 47.8135 32.8471C46.4382 30.8107 44.5762 29.1801 42.3977 28.085C45.6598 27.831 47.5446 26.3699 48.1126 25.8542Z" fill="#3A4042"/>
<path d="M31.7042 45.3002C32.9526 45.3002 33.9646 44.2922 33.9646 43.0487C33.9646 41.8053 32.9526 40.7973 31.7042 40.7973C30.4559 40.7973 29.4438 41.8053 29.4438 43.0487C29.4438 44.2922 30.4559 45.3002 31.7042 45.3002Z" fill="#3A4042"/>
<path d="M40.3434 59.1927C38.642 59.1927 36.959 58.915 36.6407 58.8599H36.6405C34.7672 58.5337 33.5085 56.968 33.5085 54.9646C33.5085 52.7628 35.307 50.9714 37.5176 50.9714C38.537 50.9714 39.6027 51.3858 40.2326 52.0269C41.7175 53.4614 44.0899 56.2667 44.1006 57.652C44.1031 58.0039 43.9625 58.2188 43.8436 58.3367C43.1754 59.0021 41.753 59.1927 40.3434 59.1927ZM36.7974 57.9652C39.3626 58.411 42.4586 58.4315 43.1989 57.6943C43.3515 57.2604 41.8842 54.8878 39.5894 52.6702C39.1283 52.2011 38.2797 51.8793 37.5176 51.8793C35.8098 51.8793 34.4205 53.2634 34.4205 54.9644C34.4205 56.5115 35.3756 57.7171 36.7974 57.9652Z" fill="#3A4042"/>
<path d="M8.95473 28.0603C9.60117 28.6565 9.83781 29.607 9.59668 30.5873C9.17641 32.2988 7.75463 33.1233 6.02225 32.7012C4.28944 32.2788 3.41021 30.8937 3.83112 29.1822C4.07183 28.2019 4.7189 27.4812 5.57227 27.2352L4.93182 25.0602C3.35292 25.5683 2.10002 26.9016 1.66907 28.6548C0.952941 31.5676 2.6244 34.2145 5.47971 34.9097C8.33501 35.6057 11.0437 34.0275 11.7594 31.1147C12.1935 29.3472 11.7004 27.5878 10.5313 26.4248L8.95473 28.0603Z" fill="#FFFCEE"/>
</svg>
