<svg width="18" height="15" viewBox="0 0 18 15" fill="none" xmlns="http://www.w3.org/2000/svg">
<path fill-rule="evenodd" clip-rule="evenodd" d="M8.15999 14.455L12.3075 10.3C12.585 10.0225 12.7425 9.64 12.7425 9.2425V1.75C12.7425 0.925 12.0675 0.25 11.2425 0.25H4.49999C3.89999 0.25 3.35999 0.61 3.12749 1.1575L0.682486 6.865C0.0449857 8.35 1.13249 10 2.74499 10H6.98249L6.26999 13.435C6.19499 13.81 6.30749 14.1925 6.57749 14.4625C7.01999 14.8975 7.72499 14.8975 8.15999 14.455ZM15.75 0.25C14.925 0.25 14.25 0.925 14.25 1.75V7.75C14.25 8.575 14.925 9.25 15.75 9.25C16.575 9.25 17.25 8.575 17.25 7.75V1.75C17.25 0.925 16.575 0.25 15.75 0.25Z" fill="#C37472"/>
</svg>
