<svg width="18" height="15" viewBox="0 0 18 15" fill="none" xmlns="http://www.w3.org/2000/svg">
<path fill-rule="evenodd" clip-rule="evenodd" d="M9.84 0.545007L5.685 4.70001C5.4075 4.97751 5.25 5.36001 5.25 5.75751V13.25C5.25 14.075 5.925 14.75 6.75 14.75H13.5C14.1 14.75 14.64 14.39 14.88 13.8425L17.325 8.13501C17.955 6.65001 16.8675 5.00001 15.255 5.00001H11.0175L11.73 1.56501C11.805 1.19001 11.6925 0.807507 11.4225 0.537507C10.98 0.102507 10.275 0.102507 9.84 0.545007ZM2.25 14.75C3.075 14.75 3.75 14.075 3.75 13.25V7.25001C3.75 6.42501 3.075 5.75001 2.25 5.75001C1.425 5.75001 0.75 6.42501 0.75 7.25001V13.25C0.75 14.075 1.425 14.75 2.25 14.75Z" fill="#C2F9BB"/>
</svg>
