<svg width="40" height="40" viewBox="0 0 40 40" fill="none" xmlns="http://www.w3.org/2000/svg">
<path fill-rule="evenodd" clip-rule="evenodd" d="M20.0001 6.66666C11.6667 6.66666 4.55008 11.85 1.66675 19.1667C4.55008 26.4833 11.6667 31.6667 20.0001 31.6667C28.3334 31.6667 35.4501 26.4833 38.3334 19.1667C35.4501 11.85 28.3334 6.66666 20.0001 6.66666ZM20.0001 27.5C15.4001 27.5 11.6667 23.7667 11.6667 19.1667C11.6667 14.5667 15.4001 10.8333 20.0001 10.8333C24.6001 10.8333 28.3334 14.5667 28.3334 19.1667C28.3334 23.7667 24.6001 27.5 20.0001 27.5ZM20.0001 14.1667C17.2334 14.1667 15.0001 16.4 15.0001 19.1667C15.0001 21.9333 17.2334 24.1667 20.0001 24.1667C22.7667 24.1667 25.0001 21.9333 25.0001 19.1667C25.0001 16.4 22.7667 14.1667 20.0001 14.1667Z" fill="#FFFCEE"/>
</svg>
